<svg xmlns="http://www.w3.org/2000/svg" viewBox="0 0 1280 720">
<defs>
<linearGradient id="bg" x1="0" x2="1" y1="0" y2="1"><stop stop-color="#121b34"/><stop offset="1" stop-color="#27153f"/></linearGradient>
<linearGradient id="road" x1="0" y1="1" x2="1" y2="0"><stop stop-color="#ff3b4a"/><stop offset=".46" stop-color="#ffe23f"/><stop offset="1" stop-color="#57ff3d"/></linearGradient>
<filter id="glow"><feGaussianBlur stdDeviation="10" result="b"/><feMerge><feMergeNode in="b"/><feMergeNode in="SourceGraphic"/></feMerge></filter>
</defs>
<rect width="1280" height="720" fill="url(#bg)"/>
<g opacity=".22" stroke="#99a4bb" stroke-width="4"><path d="M0 120H1280M0 250H1280M0 380H1280M0 510H1280M140 0V720M320 0V720M500 0V720M680 0V720M860 0V720M1040 0V720"/></g>
<path d="M290 165 C720 75 1085 120 1020 240 C960 355 380 285 300 425 C220 570 760 615 990 545" fill="none" stroke="url(#road)" stroke-linecap="round" stroke-width="64" filter="url(#glow)"/>
<text x="640" y="640" text-anchor="middle" font-family="Arial Black, Arial" font-size="62" fill="#fff" stroke="#000" stroke-width="9" paint-order="stroke fill">CHALLENGE ROAD</text>
</svg>