<svg xmlns="http://www.w3.org/2000/svg" viewBox="0 0 1280 720">
<defs><linearGradient id="bg" x1="0" x2="1" y1="0" y2="1"><stop stop-color="#111a33"/><stop offset="1" stop-color="#2b1748"/></linearGradient><filter id="glow"><feGaussianBlur stdDeviation="5" result="b"/><feMerge><feMergeNode in="b"/><feMergeNode in="SourceGraphic"/></feMerge></filter></defs>
<rect width="1280" height="720" fill="url(#bg)"/>
<circle cx="1040" cy="80" r="250" fill="#57d7ff" opacity=".12"/><circle cx="220" cy="650" r="320" fill="#ffe36b" opacity=".10"/>
<g transform="translate(95 90)">
<rect width="1090" height="92" rx="20" fill="#f35f5f" opacity=".95"/><text x="42" y="62" font-family="Arial Black, Arial" font-size="44" fill="white">S</text>
<rect x="112" y="16" width="134" height="60" rx="14" fill="#172039" stroke="white" opacity=".75"/><rect x="266" y="16" width="134" height="60" rx="14" fill="#172039" stroke="white" opacity=".75"/><rect x="420" y="16" width="134" height="60" rx="14" fill="#172039" stroke="white" opacity=".75"/>
<rect y="108" width="1090" height="82" rx="18" fill="#ffad4d" opacity=".85"/><text x="42" y="162" font-family="Arial Black, Arial" font-size="40" fill="white">A</text><rect x="112" y="122" width="112" height="54" rx="13" fill="#172039" stroke="white" opacity=".65"/><rect x="244" y="122" width="112" height="54" rx="13" fill="#172039" stroke="white" opacity=".65"/>
<rect y="204" width="1090" height="82" rx="18" fill="#ffe36b" opacity=".82"/><text x="42" y="258" font-family="Arial Black, Arial" font-size="40" fill="#111827">B</text><rect x="112" y="218" width="112" height="54" rx="13" fill="#172039" stroke="white" opacity=".65"/>
<rect y="300" width="1090" height="82" rx="18" fill="#78e08f" opacity=".78"/><text x="42" y="354" font-family="Arial Black, Arial" font-size="40" fill="#111827">C</text>
<rect y="396" width="1090" height="82" rx="18" fill="#64a6ff" opacity=".76"/><text x="42" y="450" font-family="Arial Black, Arial" font-size="40" fill="white">D</text>
<rect y="492" width="1090" height="82" rx="18" fill="#9b7bff" opacity=".74"/><text x="42" y="546" font-family="Arial Black, Arial" font-size="40" fill="white">F</text>
</g><text x="640" y="55" text-anchor="middle" font-family="Arial Black, Arial" font-size="50" fill="white" filter="url(#glow)">TIER LIST BUILDER</text></svg>